<svg xmlns="http://www.w3.org/2000/svg"
     width="24"
     height="24"
     viewBox="0 0 24 24"
     fill="#1b6b02">

<g transform="translate(2,1) scale(0.05,-0.05) translate(0,-400)">

<path d="m 336,240.61116 c 0,22.71565 -8.13329,41.27381 -21.57259,55.84104
2.17534,5.2465 9.35329,26.39909 -2.05915,55.06591
0,0 -17.57695,5.59243 -57.59793,-21.32555
-16.75717,4.61232 -34.70851,6.92488 -52.5243,7.00816
-17.81579,-0.0833 -35.74778,-2.38944 -52.47268,-7.00816
-40.05971,26.91798 -57.662482,21.32555 -57.662482,21.32555
C 80.730709,322.8577 87.90221,301.6987 90.077543,296.4522
76.66406,281.87856 68.47267,263.3204 68.47267,240.61116
c 0,-79.72258 48.9547,-97.56327 95.52104,-102.82259
-5.99669,-5.19526 -11.4318,-14.37505 -13.3102,-27.82123
-11.96756,-5.31698 -42.31251,-14.509569 -61.012631,17.29618
0,0 -11.083229,19.98029 -32.139428,21.44726
0,0 -20.455885,0.26906 -1.43301,-12.65183
0,0 13.742688,-6.39318 23.276718,-30.44128
0,0 12.303224,-37.135539 70.630581,-24.547759
0.0904,-17.38587 0.28401,-44.11808 0.28401,-49.06991
l 103.95127,0
c 0,6.85441 0.24529,39.59544 0.24529,67.43589
0,19.410149 -6.70028,32.068399 -14.22036,38.532039
C 286.95494,143.11835 336,160.71561 336,240.62397 Z"/>

</g>
</svg>